<svg width="60" height="36" viewBox="0 0 60 36" fill="none" xmlns="http://www.w3.org/2000/svg">
<path d="M0 0.468437C0 0.208898 0.208898 0 0.468437 0H17.1866C23.5738 0 26.9984 3.60823 26.9984 8.30526C26.9984 10.0271 26.5047 11.2805 26.2831 11.8249C25.4222 13.9265 23.9726 15.2179 22.9344 15.9332C22.6179 16.1547 22.7002 16.6358 23.0673 16.7435C23.732 16.946 24.5233 17.2879 25.3082 17.8766C28.7582 20.4466 28.9165 25.2006 28.9228 25.7007C28.9355 26.3527 28.9671 28.8912 27.5365 31.2397C25.4918 34.6137 21.3835 35.9937 16.6612 35.9937H0.468437C0.208898 35.9937 0 35.7848 0 35.5252V0.468437Z" fill="black"/>
<path d="M47.0083 18.0031C47.0083 8.21661 39.1588 0.265843 29.4103 0.101257C29.1507 0.101257 28.9355 0.316485 28.9355 0.576024V35.4303C28.9355 35.6898 29.1507 35.9114 29.4103 35.905C39.1588 35.7404 47.0083 27.7897 47.0083 18.0031Z" fill="black"/>
<path d="M59.2319 18.0032C59.2319 10.1917 54.44 3.53225 47.6983 0.905208C47.3944 0.784934 47.0652 1.02548 47.0652 1.36098V34.6516C47.0652 34.9871 47.3944 35.2214 47.6983 35.1074C54.44 32.4804 59.2319 25.821 59.2319 18.0095V18.0032Z" fill="black"/>
</svg>
