<svg width="143" height="143" viewBox="0 0 143 143" fill="none" xmlns="http://www.w3.org/2000/svg">
<path d="M71 0C87.113 0 106.5 13.0595 106.5 29.1523V37.6025H107.15C126.399 37.6025 142.019 53.203 142.02 72.4277V107.194C142.02 126.419 126.399 142.02 107.15 142.02H46.7217C40.6483 142.015 34.8453 140.852 29.5215 138.742C12.2622 132.081 0 115.34 0 95.7695V46.0527C0.000138598 20.643 20.6689 0.000109378 46.1104 0H71ZM54 69C45.7157 69 39 75.7157 39 84V92.29C39 100.574 45.7157 107.29 54 107.29H89.0801C97.3643 107.29 104.08 100.574 104.08 92.29V84C104.08 75.7158 97.3643 69 89.0801 69H54ZM129.891 0C136.578 5.50791e-05 142 5.41525 142 12.0947V15.8174C142 22.4968 136.578 27.9111 129.891 27.9111H126.163C119.475 27.9111 114.054 22.4968 114.054 15.8174V12.0947C114.054 5.41521 119.475 0 126.163 0H129.891Z" fill="black"/>
</svg>
