<svg width="265" height="36" viewBox="0 0 265 36" fill="none" xmlns="http://www.w3.org/2000/svg">
<g clip-path="url(#clip0_762_1014)">
<path d="M64.4037 0.0696411H83.4577C90.5349 0.0696411 94.3394 3.65888 94.3394 8.34325C94.3394 10.0587 93.795 11.3058 93.5418 11.8502C92.2314 14.7241 89.6993 16.0788 88.7878 16.5092C89.6423 16.6295 91.0477 16.9334 92.4593 17.8829C96.2891 20.4403 96.4537 25.1817 96.4663 25.6754C96.479 26.3211 96.5106 28.8532 94.9344 31.1954C92.6682 34.5567 88.1168 35.9304 82.8817 35.9304H64.4037V0.0696411ZM86.4266 10.0651C86.4266 7.30509 84.5022 6.10868 81.0143 6.10868H72.0063V14.4393H80.9066C84.135 14.4393 86.4266 13.0339 86.4266 10.0651ZM88.6105 25.1057C88.6105 22.0355 86.6861 20.3137 82.4702 20.3137H72.0063V29.7901H82.3626C86.7874 29.7901 88.6105 28.0746 88.6105 25.1057Z" fill="black"/>
<path d="M99.3593 10.4258H106.905V35.9303H99.3593V10.4258ZM99.4605 0.0949097H106.854V6.41881H99.4605V0.0949097Z" fill="black"/>
<path d="M109.646 31.246L126.041 15.8888H110.216V10.4258H134.834V15.3698L118.907 30.4673H135.353V35.9303H109.64V31.246H109.646Z" fill="black"/>
<path d="M138.005 0.0696411H154.559C165.7 0.0696411 172.467 6.83665 172.467 18.0285C172.467 27.8657 166.586 35.9367 154.249 35.9367H138.005V0.0696411ZM164.396 17.6613C164.396 9.22948 160.18 6.4695 153.78 6.4695H145.817V29.5305H153.938C160.497 29.5305 164.402 26.0932 164.402 17.6613H164.396Z" fill="black"/>
<path d="M174.588 22.2128C174.588 14.1417 180.677 8.88763 188.85 8.88763C197.858 8.88763 202.751 14.6102 202.751 23.0484V23.7763H181.931C182.298 27.7327 184.691 30.594 189.324 30.594C192.762 30.594 195.313 28.8215 196.611 25.859C198.712 25.859 200.807 25.8716 202.909 25.878C202.65 27.2706 201.979 29.7457 199.985 31.9423C196.231 36.076 190.736 35.9683 188.799 35.9304C186.78 35.8924 181.665 35.7911 177.962 31.7714C174.581 28.0999 174.588 23.5484 174.588 22.2191V22.2128ZM195.357 19.2439C195.047 15.4964 192.648 13.7239 188.799 13.7239C184.95 13.7239 182.602 15.699 182.032 19.2439H195.357Z" fill="black"/>
<path d="M205.315 22.3457C205.315 19.2629 206.175 16.6358 207.663 14.5468C211.569 9.07119 218.481 8.95724 219.735 8.96357C221.058 8.9699 228.243 9.19146 231.287 14.4455C232.193 16.0091 232.465 17.5537 232.547 18.6045C230.306 18.6045 228.065 18.6045 225.825 18.5982C224.888 15.5787 222.754 14.2746 219.735 14.2746C215.886 14.2746 212.917 16.927 212.917 22.3457C212.917 27.7643 215.728 30.5686 219.944 30.5686C222.856 30.5686 225.305 28.8531 226.344 25.5741C228.496 25.5741 230.642 25.5741 232.794 25.5741C232.636 26.6819 231.958 30.4863 228.654 33.259C225.312 36.0569 221.469 35.9367 219.475 35.9367C210.733 35.9367 205.315 30.0559 205.315 22.352V22.3457Z" fill="black"/>
<path d="M235.276 0.0696411H242.771V22.6622L254.589 10.4322H263.597L253.709 20.377L265.002 35.943H256.051L248.189 24.7006L242.828 29.904V35.943H235.282V0.0696411H235.276Z" fill="black"/>
<path d="M0 0.468437C0 0.208898 0.208898 0 0.468437 0H17.1866C23.5738 0 26.9984 3.60823 26.9984 8.30526C26.9984 10.0271 26.5047 11.2805 26.2831 11.8249C25.4222 13.9265 23.9726 15.2179 22.9344 15.9332C22.6179 16.1547 22.7002 16.6358 23.0673 16.7435C23.732 16.946 24.5233 17.2879 25.3082 17.8766C28.7582 20.4466 28.9165 25.2006 28.9228 25.7007C28.9355 26.3527 28.9671 28.8912 27.5365 31.2397C25.4918 34.6137 21.3835 35.9937 16.6612 35.9937H0.468437C0.208898 35.9937 0 35.7848 0 35.5252V0.468437Z" fill="black"/>
<path d="M47.0083 18.0031C47.0083 8.21661 39.1588 0.265843 29.4102 0.101257C29.1507 0.101257 28.9355 0.316485 28.9355 0.576024V35.4303C28.9355 35.6898 29.1507 35.9114 29.4102 35.905C39.1588 35.7404 47.0083 27.7897 47.0083 18.0031Z" fill="black"/>
<path d="M59.2319 18.0032C59.2319 10.1917 54.44 3.53225 47.6983 0.905208C47.3944 0.784934 47.0652 1.02548 47.0652 1.36098V34.6516C47.0652 34.9871 47.3944 35.2214 47.6983 35.1074C54.44 32.4804 59.2319 25.821 59.2319 18.0095V18.0032Z" fill="black"/>
</g>
<defs>
<clipPath id="clip0_762_1014">
<rect width="265.002" height="36" fill="white"/>
</clipPath>
</defs>
</svg>
