<svg width="122" height="258" viewBox="0 0 122 258" fill="none" xmlns="http://www.w3.org/2000/svg">
<path d="M-86 3.35321C-86 1.49535 -84.5046 0 -82.6468 0H37.0266C82.7481 0 107.263 25.8288 107.263 59.4515C107.263 71.7768 103.728 80.749 102.142 84.6459C95.9797 99.6901 85.6029 108.934 78.1714 114.055C75.9057 115.64 76.4948 119.084 79.123 119.855C83.8809 121.305 89.5452 123.752 95.164 127.966C119.86 146.363 120.993 180.394 121.038 183.973C121.129 188.641 121.355 206.812 111.114 223.623C96.4781 247.775 67.0696 257.654 33.2656 257.654H-82.6468C-84.5046 257.654 -86 256.158 -86 254.3V3.35321Z" fill="black"/>
</svg>
