<svg width="269" height="127" viewBox="0 0 269 127" fill="none" xmlns="http://www.w3.org/2000/svg">
<path d="M3.89982 240.812C1.73911 240.812 -7.60188e-08 239.072 -1.70466e-07 236.912L-6.25427e-06 97.7304C-8.57861e-06 44.5559 30.0391 16.045 69.1427 16.045C83.4772 16.045 93.9118 20.1556 98.444 22.0001C115.94 29.1674 126.691 41.2357 132.646 49.8786C134.491 52.5136 138.496 51.8285 139.392 48.7719C141.079 43.2383 143.924 36.6508 148.825 30.116C170.222 1.39435 209.8 0.0768475 213.963 0.0241471C219.391 -0.0812536 240.524 -0.34477 260.076 11.5655C288.165 28.5877 299.653 62.7901 299.653 102.104L299.654 236.912C299.654 239.072 297.914 240.812 295.754 240.812L3.89982 240.812Z" fill="black"/>
</svg>
