<svg width="24" height="24" viewBox="0 0 24 24" fill="none" xmlns="http://www.w3.org/2000/svg">
<path d="M15 5H17C18.1046 5 19 5.89543 19 7V9" stroke="#FFFEEC" stroke-width="1.5" stroke-linecap="round"/>
<path d="M19 15L19 17C19 18.1046 18.1046 19 17 19L15 19" stroke="#FFFEEC" stroke-width="1.5" stroke-linecap="round"/>
<path d="M9 5H7C5.89543 5 5 5.89543 5 7V9" stroke="#FFFEEC" stroke-width="1.5" stroke-linecap="round"/>
<path d="M5 15L5 17C5 18.1046 5.89543 19 7 19L9 19" stroke="#FFFEEC" stroke-width="1.5" stroke-linecap="round"/>
<rect x="7.5" y="7.5" width="4.26316" height="4.26316" rx="1" fill="#FFFEEC"/>
<rect x="12.2368" y="7.5" width="4.26316" height="4.26316" rx="1" fill="#FFFEEC"/>
<rect x="7.5" y="12.2368" width="4.26316" height="4.26316" rx="1" fill="#FFFEEC"/>
<rect x="12.7368" y="12.7368" width="3.26316" height="3.26316" rx="0.5" stroke="#FFFEEC"/>
</svg>
